<?xml version="1.0" encoding="UTF-8"?>
<svg width="808px" height="331px" viewBox="0 0 808 331" version="1.1" xmlns="http://www.w3.org/2000/svg" xmlns:xlink="http://www.w3.org/1999/xlink">
    <title>bg-lavender</title>
    <g id="Page-1" stroke="none" stroke-width="1" fill="none" fill-rule="evenodd">
        <g id="bg-lavender" transform="translate(393.233005, 250.763843) rotate(8.000000) translate(-393.233005, -250.763843) translate(-34.079927, 88.808770)" fill="#C7A2CC" fill-rule="nonzero">
            <path d="M822.52873,14.7873174 C818.146935,14.6976685 813.359063,14.6528441 808.165115,14.6528441 C797.531559,14.6528441 787.003285,14.8525373 776.369728,14.9523839 C772.053136,14.9523839 767.631261,15.1520771 763.314669,15.1520771 C753.418091,15.0522305 743.521514,14.8525373 733.519654,14.8525373 C723.307228,14.9523839 713.200085,15.3517703 702.98766,15.4516169 C699.302764,15.4516169 695.617868,15.1520771 691.932972,14.9523839 C692.038255,15.3517703 542.747332,15.8510033 543.168463,15.6513101 C544.221291,15.3517703 522.149453,16.8494694 515.411358,15.9508499 C508.673263,15.0522305 499.791975,15.2519237 493.05388,15.6513101 C489.053136,15.8510033 485.052392,16.2503898 480.946365,16.450083 C479.051276,16.5499296 477.156186,16.0506966 475.155814,15.9508499 C462.521886,15.5514635 449.887957,16.5499296 437.359311,17.448549 C432.516306,17.7480888 427.6733,18.0476286 422.725011,18.2473218 C414.723523,18.6467082 406.827317,18.9462481 398.825829,19.3456345 C394.719803,18.3471684 390.824341,19.9447141 386.92888,20.4439471 C383.770398,20.8433335 380.506633,21.1428733 377.558716,21.9416462 C371.241752,23.738885 364.714222,22.8402656 358.291975,23.1398054 C351.343314,23.4393452 344.289371,23.4393452 337.34071,23.6390384 C327.865264,23.8387316 318.389817,24.1382714 308.914371,24.4378112 C304.597779,24.5376578 300.175904,24.8371977 295.859311,25.0368909 C288.700085,25.3364307 281.646142,25.6359705 274.486916,25.9355103 C271.749564,26.0353569 269.012213,26.5345899 266.274862,26.7342831 C262.800532,26.9339763 259.220919,27.1336695 255.746588,27.2335161 C251.851127,27.4332093 247.850383,27.5330559 243.954922,27.8325958 C231.320993,28.7312152 218.792347,28.8310618 206.158419,28.9309084 C202.473523,28.9309084 198.788627,28.8310618 195.103731,28.7312152 C190.787139,28.531522 186.470547,28.1321356 182.048672,27.9324424 C179.837734,27.8325958 177.626797,27.7327491 175.521142,27.9324424 C167.519654,28.3318288 159.518166,28.8310618 151.62196,29.2304482 C149.411023,29.3302948 147.094803,29.4301414 144.883865,29.6298346 C137.829922,30.1290676 130.881261,30.7281472 123.827317,31.0276871 C113.299044,31.5269201 102.876053,32.4255395 92.3477787,32.0261531 C87.0836418,31.8264599 81.9247877,32.1259997 76.6606508,32.0261531 C67.2904871,31.8264599 58.0256061,31.4270735 48.6554424,31.1275337 C46.8656359,31.0276871 45.0758293,31.1275337 43.3913055,31.1275337 C36.0215139,30.9278405 28.6517222,30.7281472 21.1766478,30.6283006 C15.3860972,30.528454 10.6739916,30.7770029 4.88344102,30.7770029 L53.9868823,309.257302 C55.5661234,309.655843 846.868913,168.34965 849.711547,168.948729 C850.343243,169.081858 841.282304,117.694721 822.52873,14.7873174 Z" id="Path" transform="translate(427.312932, 161.955073) rotate(2.000000) translate(-427.312932, -161.955073) "></path>
        </g>
        <path d="M645.378952,72.3069751 C645.221048,67.3329928 645.852665,62.3590105 646.721138,57.4639803 C647.668563,52.2531417 649.958174,47.5949678 652.642545,43.2526022 C656.905959,36.4627216 662.116797,30.5413141 668.669822,25.8041881 C672.617427,22.9619125 676.565032,19.9617327 680.670541,17.2773613 C684.144433,14.9877504 688.17099,13.7245168 692.2765,12.7770916 C699.776949,10.9611933 707.435303,10.9611933 715.014704,11.513858 C721.409824,11.9875706 727.64704,13.3297563 733.568448,15.6983193 C739.174047,17.9879302 744.779646,20.1196369 749.753628,23.7514335 C753.780186,26.7516133 757.33303,30.1465536 760.33321,34.1731107 C763.72815,38.7523325 766.807282,43.4894585 769.412701,48.542393 C771.939169,53.4374232 773.755067,58.6482618 775.176205,64.0959567 C776.992103,71.2805978 777.228959,78.6231431 776.834199,85.8867363 C776.597342,90.3080539 775.886774,94.6504194 774.939348,98.9927849 C773.912971,103.887815 771.386504,108.072276 767.991564,111.704073 C764.991384,114.941109 762.149108,118.257097 758.912072,121.257277 C755.596084,124.336409 751.806383,126.704972 748.016682,128.994583 C744.069077,131.363146 739.805664,132.784284 735.463298,134.205422 C735.14749,134.284374 734.831681,134.363326 734.594825,134.442278 C729.620843,136.652937 724.331052,137.995122 718.962309,138.863595 C712.014525,139.968925 704.908836,140.600542 697.882099,139.889973 C697.645242,139.889973 697.408386,139.811021 697.092578,139.811021 C694.487158,139.968925 692.118595,139.41626 689.828984,138.231979 C687.934134,137.205601 685.960332,136.41608 684.065481,135.468655 C681.460062,134.126469 678.77569,132.863236 676.249223,131.363146 C673.801708,129.942008 671.433145,128.362966 669.143534,126.704972 C667.011828,125.12593 665.038025,123.388984 663.143175,121.573086 C660.616707,119.12557 658.406049,116.362247 656.59015,113.362067 C652.958354,107.361708 650.273982,100.887635 648.30018,94.1767068 C646.326377,87.3868262 645.378952,80.5179935 645.3,73.4912566 C645.378952,73.017544 645.378952,72.6227835 645.378952,72.3069751 Z" id="Path" fill="#F36B23" fill-rule="nonzero"></path>
    </g>
</svg>