<?xml version="1.0" encoding="utf-8"?>
<!-- Generator: Adobe Illustrator 26.0.3, SVG Export Plug-In . SVG Version: 6.00 Build 0)  -->
<svg version="1.1" id="Layer_1" xmlns="http://www.w3.org/2000/svg" xmlns:xlink="http://www.w3.org/1999/xlink" x="0px" y="0px"
	 viewBox="0 0 230.1 97.85" style="enable-background:new 0 0 230.1 97.85;" xml:space="preserve">
<style type="text/css">
	.st0{fill:#FFFFFF;}
	.st1{fill:#F36C23;}
	.st2{fill:#986AAD;}
	.st3{fill:#263D7F;}
	.st4{fill:#F8C1D9;}
</style>
<g>
	<g>
		<polygon class="st0" points="22.78,0.28 22.78,16.01 4.54,16.01 4.54,0.28 0.65,0.28 0.65,35.8 4.54,35.8 4.54,19.96 22.78,19.96 
			22.78,35.8 26.68,35.8 26.68,0.28 		"/>
		<g>
			<path class="st0" d="M77.98,4.17h7.32c2.62,0,7.58,1.24,7.58,5.95c0,3.32-2.48,5.54-6.64,5.94l-0.75,0.07L77.98,4.17z
				 M77.77,19.96h5.54l9.87,15.84h4.54l-10-16.01l1.58-0.44c3.4-0.95,7.46-3.32,7.46-9.23c0-9.73-11-9.84-11.47-9.84H73.88v4.77
				l7.03,11.08h-7.03V35.8h3.89V19.96z"/>
		</g>
		<rect x="108.55" y="0.28" class="st0" width="3.89" height="35.53"/>
		<polygon class="st0" points="123.89,0.13 123.89,4.02 144.36,4.02 124.86,35.7 152.23,35.7 152.23,31.8 131.82,31.8 151.27,0.13 
					"/>
		<polygon class="st0" points="225.89,0.28 225.89,29.96 205.08,0.28 200.55,0.28 200.55,35.8 204.44,35.8 204.44,6.11 225.19,35.8 
			229.72,35.8 229.72,0.28 		"/>
		<polygon class="st0" points="22.78,0.28 22.78,16.01 4.54,16.01 4.54,0.28 0.65,0.28 0.65,35.8 4.54,35.8 4.54,19.96 22.78,19.96 
			22.78,35.8 26.68,35.8 26.68,0.28 		"/>
		<rect x="108.55" y="0.28" class="st0" width="3.89" height="35.53"/>
		<polygon class="st0" points="123.89,0.13 123.89,4.02 144.36,4.02 124.86,35.7 152.23,35.7 152.23,31.8 131.82,31.8 151.27,0.13 
					"/>
		<polygon class="st0" points="225.89,0.28 225.89,29.96 205.08,0.28 200.55,0.28 200.55,35.8 204.44,35.8 204.44,6.11 225.19,35.8 
			229.72,35.8 229.72,0.28 		"/>
		<g>
			<g>
				<path class="st0" d="M13.18,48.91l-1.09,3.32H5.77v2.97h5.68v3.28H5.68c0.06,0.18,0.09,0.32,0.09,0.43v6.2h-4v-16.2H13.18z"/>
				<path class="st0" d="M44.03,65.11H32.25v-16.2h11.78v3.32H36.3v2.79h7.05l-1.03,3.36h-6.13c0.07,0.15,0.11,0.29,0.11,0.43v2.98
					h7.73V65.11z"/>
				<path class="st0" d="M76.42,60.14c0,1.7-0.59,3.02-1.75,3.93c-1.17,0.92-2.81,1.38-4.91,1.38c-3.18,0-5.42-1.29-6.72-3.87
					l3.19-1.55c0.81,1.41,1.99,2.12,3.53,2.12c1.78,0,2.66-0.62,2.66-1.86c0-0.88-0.5-1.41-1.5-1.58c-2.3-0.38-3.45-0.57-3.46-0.57
					c-1.26-0.3-2.21-0.76-2.83-1.38c-0.78-0.78-1.17-1.91-1.17-3.37c0-1.53,0.61-2.73,1.82-3.6c1.15-0.82,2.66-1.23,4.54-1.23
					c2.93,0,5.05,1.07,6.35,3.2l-3.2,1.58c-0.66-1.03-1.71-1.55-3.15-1.55c-1.59,0-2.38,0.48-2.38,1.44c0,0.75,0.37,1.18,1.12,1.29
					c2.34,0.39,3.55,0.59,3.64,0.61c1.34,0.32,2.33,0.8,2.98,1.46C76.01,57.42,76.42,58.6,76.42,60.14z"/>
				<path class="st0" d="M108.1,52.21h-4.63v12.9H99.4v-12.9h-4.65v-3.3h13.35V52.21z"/>
				<path class="st0" d="M134.17,65.11h-7.44v-2.06h1.71V50.98h-1.71v-2.07h7.44v2.07h-1.69v12.06h1.69V65.11z"/>
				<path class="st0" d="M168.33,48.91l-6.09,16.2h-3.78l-6.09-16.2h4.43l3.32,9.64c0.04,0.13,0.11,0.6,0.2,1.39
					c0.03-0.31,0.11-0.77,0.25-1.39l3.32-9.64H168.33z"/>
				<path class="st0" d="M199.94,65.11h-4.24l-1.24-3.26h-5.36l-1.24,3.26h-4.05l6.27-16.2h3.62L199.94,65.11z M193.23,58.59
					l-1.26-3.48c-0.07-0.2-0.13-0.43-0.19-0.7c-0.03,0.2-0.1,0.43-0.2,0.7l-1.28,3.48H193.23z"/>
				<path class="st0" d="M229.23,65.11h-10.47v-16.2h4.05v12.7h6.43V65.11z"/>
			</g>
		</g>
	</g>
	<g>
		<path class="st1" d="M176.55,0.01c1.07-0.04,2.12,0.1,3.18,0.28c1.12,0.2,2.11,0.67,3.04,1.23c1.45,0.88,2.73,1.96,3.74,3.32
			c0.61,0.83,1.25,1.64,1.82,2.49c0.49,0.73,0.76,1.56,0.97,2.4c0.38,1.56,0.39,3.14,0.27,4.72c-0.1,1.32-0.39,2.63-0.9,3.85
			c-0.49,1.16-0.95,2.33-1.73,3.36c-0.64,0.84-1.36,1.57-2.23,2.2c-0.97,0.71-2,1.35-3.08,1.88c-1.05,0.52-2.17,0.91-3.33,1.19
			c-1.54,0.38-3.1,0.42-4.67,0.34c-0.94-0.05-1.88-0.2-2.8-0.39c-1.05-0.21-1.94-0.75-2.73-1.44c-0.69-0.62-1.4-1.22-2.05-1.88
			c-0.67-0.68-1.16-1.47-1.66-2.26c-0.51-0.81-0.81-1.71-1.12-2.6c-0.02-0.06-0.03-0.13-0.06-0.19c-0.47-1.04-0.76-2.13-0.94-3.24
			c-0.23-1.45-0.37-2.91-0.21-4.38c0.01-0.05,0.02-0.1,0.01-0.16c-0.04-0.54,0.08-1.03,0.35-1.51c0.22-0.39,0.38-0.8,0.59-1.19
			c0.29-0.55,0.56-1.1,0.88-1.62c0.3-0.51,0.64-1,1-1.47c0.34-0.44,0.72-0.85,1.1-1.25c0.52-0.53,1.12-0.98,1.77-1.36
			c1.29-0.76,2.67-1.31,4.11-1.72c1.45-0.41,2.93-0.6,4.44-0.62C176.38,0.01,176.46,0.01,176.55,0.01"/>
		<path class="st2" d="M187.86,31.33c0-0.06-0.01-0.13-0.01-0.2c-0.38-0.01-0.76-0.02-1.14-0.04c-0.04,0-0.08-0.04-0.12-0.06
			c-0.04,0-0.07,0-0.1,0c-0.09,0.02-0.17,0.04-0.26,0.06c-0.1,0.02-0.12-0.04-0.14-0.09l-0.26-0.01c-0.04,0-0.08-0.01-0.13-0.01
			c-0.27-0.01-0.54-0.02-0.81-0.03c-0.12,0.05-0.24,0.06-0.34-0.02c-0.2,0-0.4-0.01-0.6-0.01c-0.09,0.01-0.18,0.03-0.26,0.03
			c-0.49,0-0.98,0.01-1.47,0c-0.12,0-0.24-0.04-0.37-0.05c-0.29,0-0.58,0-0.87,0c-0.08,0-0.16,0-0.24,0c-0.11,0-0.21,0-0.32,0
			c-0.02,0-0.05,0-0.07,0c-0.24,0-0.47,0-0.71,0c-0.13,0.01-0.27,0.03-0.4,0.03c-0.23,0-0.47-0.02-0.7-0.03c-0.17,0-0.33,0-0.49,0
			c-0.06,0-0.11,0-0.17,0c-0.13,0-0.25,0-0.38,0c-0.02,0-0.05,0-0.07,0l-1.14,0.02c-0.07,0.05-0.15,0.06-0.23,0.01
			c-0.29,0.01-0.58,0.01-0.87,0.02c-0.22,0.09-0.45,0.07-0.68,0.02c-0.42,0.01-0.84,0.01-1.26,0.02c-0.02,0.01-0.04,0.04-0.06,0.04
			c-0.4,0.02-0.79,0.03-1.19,0.05c-0.03,0-0.06-0.04-0.1-0.06c-0.05,0-0.1,0-0.15,0c-0.16,0.09-0.34,0.09-0.52,0.01
			c-0.51,0-1.02,0-1.52,0c-0.15,0.08-0.2,0.08-0.36,0c-0.16,0-0.31,0.01-0.47,0.01c-0.01,0.01-0.03,0.02-0.04,0.02
			c-0.38,0.03-0.76,0.05-1.13-0.01c-0.33,0.01-0.65,0.02-0.98,0.03c-0.05,0.04-0.09,0.04-0.14,0c-0.4,0.02-0.81,0.04-1.22,0.05v4.49
			c0.36,0.04,0.73,0.08,1.09,0.11c0.65,0.05,1.31,0.08,1.97,0.11c0.32,0.01,0.64-0.03,0.96-0.03c1.04,0.01,2.08,0.03,3.11,0.03
			c1.18,0,2.37-0.02,3.55-0.03c0.49-0.01,0.97-0.02,1.46-0.04c0.48-0.02,0.97-0.05,1.45-0.07c0.8-0.04,1.59-0.08,2.39-0.12
			c0.49-0.03,0.99-0.05,1.48-0.08c0.79-0.04,1.57-0.08,2.36-0.12c0.75-0.04,1.5-0.08,2.25-0.12c0.13-0.01,0.25-0.02,0.38-0.02
			c0-0.07,0.01-0.13,0.01-0.2C187.86,33.79,187.86,32.56,187.86,31.33"/>
		<path class="st3" d="M49.63,0.31c1.06-0.04,2.1,0.09,3.14,0.28c1.1,0.2,2.09,0.66,3.01,1.22c1.43,0.87,2.7,1.94,3.69,3.28
			c0.61,0.82,1.23,1.62,1.8,2.46c0.49,0.72,0.75,1.54,0.96,2.37c0.38,1.54,0.39,3.1,0.27,4.67c-0.1,1.31-0.38,2.6-0.89,3.81
			c-0.48,1.14-0.94,2.31-1.71,3.32c-0.63,0.83-1.35,1.55-2.2,2.17c-0.96,0.7-1.98,1.33-3.04,1.86c-1.04,0.52-2.15,0.9-3.29,1.18
			c-1.53,0.38-3.07,0.42-4.62,0.33c-0.93-0.05-1.86-0.2-2.77-0.38c-1.04-0.21-1.92-0.74-2.7-1.43c-0.69-0.61-1.38-1.2-2.02-1.86
			c-0.66-0.67-1.15-1.45-1.64-2.24c-0.5-0.8-0.8-1.69-1.11-2.57c-0.02-0.06-0.03-0.13-0.06-0.19c-0.46-1.03-0.75-2.11-0.93-3.2
			c-0.23-1.43-0.36-2.88-0.21-4.33c0.01-0.05,0.02-0.1,0.01-0.16c-0.04-0.53,0.08-1.02,0.34-1.49c0.22-0.38,0.38-0.79,0.58-1.18
			c0.28-0.54,0.55-1.08,0.87-1.6c0.3-0.5,0.63-0.99,0.99-1.45c0.33-0.43,0.71-0.84,1.09-1.23c0.51-0.52,1.11-0.96,1.74-1.34
			c1.27-0.75,2.64-1.29,4.06-1.7c1.43-0.41,2.9-0.6,4.38-0.61C49.47,0.31,49.55,0.31,49.63,0.31"/>
		<path class="st4" d="M60.82,31.27c0-0.06-0.01-0.13-0.01-0.19c-0.37-0.01-0.75-0.02-1.12-0.04c-0.04,0-0.08-0.04-0.12-0.06
			c-0.03,0-0.07,0-0.1,0c-0.09,0.02-0.17,0.04-0.25,0.06c-0.1,0.02-0.12-0.04-0.14-0.09c-0.09,0-0.17-0.01-0.26-0.01
			c-0.04,0-0.08-0.01-0.12-0.01c-0.27-0.01-0.54-0.02-0.8-0.03c-0.12,0.05-0.24,0.06-0.34-0.02c-0.2,0-0.39-0.01-0.59-0.01
			c-0.09,0.01-0.17,0.03-0.26,0.03c-0.49,0-0.97,0-1.46,0c-0.12,0-0.24-0.03-0.36-0.05c-0.29,0-0.57,0-0.86,0c-0.08,0-0.15,0-0.23,0
			c-0.1,0-0.21,0-0.31,0c-0.02,0-0.05,0-0.07,0c-0.23,0-0.47,0-0.7-0.01c-0.13,0.01-0.26,0.03-0.4,0.03c-0.23,0-0.46-0.02-0.7-0.03
			c-0.16,0-0.33,0-0.49,0c-0.06,0-0.11,0-0.17,0c-0.12,0-0.25,0-0.37,0c-0.02,0-0.05,0-0.07,0c-0.38,0.01-0.75,0.01-1.12,0.02
			c-0.07,0.05-0.15,0.06-0.23,0.01c-0.29,0.01-0.57,0.01-0.86,0.02c-0.22,0.09-0.44,0.07-0.67,0.02c-0.41,0-0.83,0.01-1.24,0.01
			c-0.02,0.01-0.04,0.04-0.06,0.04c-0.39,0.02-0.79,0.03-1.18,0.05c-0.03,0-0.06-0.04-0.1-0.06c-0.05,0-0.1,0-0.15,0
			c-0.16,0.09-0.33,0.09-0.51,0.01c-0.5,0-1,0-1.5,0c-0.15,0.08-0.19,0.08-0.35,0c-0.16,0-0.31,0.01-0.46,0.01
			c-0.01,0.01-0.03,0.02-0.04,0.02c-0.37,0.03-0.75,0.05-1.12-0.01c-0.32,0.01-0.64,0.02-0.97,0.03c-0.05,0.04-0.09,0.04-0.14,0
			c-0.4,0.02-0.8,0.04-1.2,0.05v4.44c0.36,0.04,0.72,0.07,1.08,0.1c0.65,0.05,1.3,0.08,1.95,0.11c0.32,0.01,0.63-0.03,0.95-0.03
			c1.03,0.01,2.05,0.03,3.08,0.03c1.17,0,2.34-0.02,3.51-0.03c0.48-0.01,0.96-0.02,1.44-0.04c0.48-0.02,0.96-0.05,1.44-0.07
			c0.79-0.04,1.57-0.08,2.36-0.12c0.49-0.03,0.98-0.05,1.46-0.07c0.78-0.04,1.55-0.08,2.33-0.12c0.74-0.04,1.48-0.08,2.22-0.12
			c0.12-0.01,0.25-0.02,0.38-0.02c0-0.06,0.01-0.13,0.01-0.19C60.82,33.71,60.82,32.49,60.82,31.27"/>
	</g>
</g>
<g>
	<path class="st0" d="M3.97,92.62c1.33-1.67,1.97-2.68,1.97-3.73c0-1.26-0.88-1.93-2.16-1.93c-0.9,0-1.95,0.35-2.86,1.02v-2.11
		c0.69-0.47,1.73-0.9,3.04-0.9c2.33,0,4.19,1.38,4.19,3.75c0,1.55-0.79,2.92-2.17,4.66l-1.83,2.29l0.02,0.03h4.44v1.95H0.02L0,97.63
		L3.97,92.62z"/>
	<path class="st0" d="M20.59,85.17l-3.38,5.19l0.03,0.03c0.4-0.24,0.97-0.43,1.62-0.43c2.09,0,3.8,1.59,3.8,3.83
		c0,2.33-1.88,4.06-4.45,4.06c-2.5,0-4.44-1.64-4.44-4.25c0-1.28,0.43-2.4,1.54-4.12l2.74-4.31H20.59z M18.24,95.97
		c1.23,0,2.26-0.85,2.26-2.12c0-1.21-0.93-2.14-2.23-2.14c-1.26,0-2.28,0.86-2.28,2.07C16,94.9,16.89,95.97,18.24,95.97z"/>
	<path class="st0" d="M47.02,97.66h-2.33l-1.19-3.05h-5.38l-1.21,3.05h-2.26l5.13-12.49h2.14L47.02,97.66z M38.83,92.81h3.97
		l-0.73-1.88c-0.43-1.12-0.85-2.23-1.24-3.35h-0.03c-0.41,1.16-0.81,2.23-1.24,3.35L38.83,92.81z"/>
	<path class="st0" d="M61.93,91.59c0,1.85-0.19,3.23-0.9,4.28c-0.86,1.28-2.43,1.98-4.37,1.98c-2,0-3.52-0.76-4.35-2.02
		c-0.69-1.04-0.88-2.42-0.88-4.11v-6.56h2.19v6.42c0,1.47,0.12,2.31,0.48,2.95c0.41,0.72,1.19,1.31,2.64,1.31
		c1.31,0,2.11-0.48,2.55-1.26c0.4-0.67,0.5-1.6,0.5-2.97v-6.45h2.12V91.59z"/>
	<path class="st0" d="M78.12,96.7c-1.12,0.69-2.71,1.16-4.3,1.16c-3.85,0-6.64-2.69-6.64-6.4c0-3.68,2.78-6.47,6.71-6.47
		c1.59,0,2.9,0.45,3.83,1v2.3c-1.02-0.78-2.4-1.31-3.81-1.31c-2.73,0-4.54,1.98-4.54,4.47c0,2.42,1.71,4.47,4.56,4.47
		c0.76,0,1.48-0.16,2.04-0.43v-2.4h-2.48v-1.86h4.64V96.7z"/>
	<path class="st0" d="M91.13,92.09h6.78v1.57h-6.78V92.09z"/>
	<path class="st0" d="M109.97,94.78l6.4-9.61h1.98v7.87h2.05v1.78h-2.05v2.85h-2.16v-2.85h-6.21L109.97,94.78z M113.18,93l0.02,0.03
		h3v-2.21c0-0.81,0.02-1.73,0.03-2.4l-0.03-0.02c-0.4,0.64-0.95,1.48-1.43,2.21L113.18,93z"/>
	<path class="st0" d="M133.05,94.61c1.26,0.9,2.85,1.29,3.88,1.29c1.24,0,2.14-0.54,2.14-1.69c0-1.38-1.31-1.57-2.93-2.05
		c-1.74-0.53-3.38-1.33-3.38-3.55c0-2.26,1.69-3.62,4.21-3.62c1.21,0,2.66,0.29,3.71,0.92v2.21c-1.24-0.81-2.71-1.17-3.73-1.17
		c-1.17,0-2,0.47-2,1.52c0,1.33,1.31,1.5,2.81,1.97c1.85,0.57,3.5,1.38,3.5,3.68c0,2.35-1.76,3.76-4.35,3.76
		c-1.23,0-2.73-0.33-3.87-0.95V94.61z"/>
	<path class="st0" d="M146.57,85.17h7.46v1.95h-5.26v3.11h4.57v1.86h-4.57v3.62h5.44v1.95h-7.63V85.17z"/>
	<path class="st0" d="M159.62,85.17h3.49c1.35,0,2.66,0.09,3.71,0.66c1.09,0.59,1.9,1.66,1.9,3.23c0,1.47-0.71,2.55-1.74,3.18
		c-1.02,0.6-2.36,0.74-4.09,0.74h-1.07v4.69h-2.19V85.17z M163.06,91.14c1.28,0,2-0.05,2.59-0.4c0.55-0.33,0.88-0.86,0.88-1.62
		c0-0.81-0.38-1.36-1.02-1.67c-0.62-0.31-1.42-0.33-2.49-0.33h-1.21v4.02H163.06z"/>
	<path class="st0" d="M184.61,92.62c1.33-1.67,1.97-2.68,1.97-3.73c0-1.26-0.88-1.93-2.16-1.93c-0.9,0-1.95,0.35-2.86,1.02v-2.11
		c0.69-0.47,1.73-0.9,3.04-0.9c2.33,0,4.19,1.38,4.19,3.75c0,1.55-0.79,2.92-2.17,4.66l-1.83,2.29l0.02,0.03h4.44v1.95h-8.58
		l-0.02-0.03L184.61,92.62z"/>
	<path class="st0" d="M195.72,86.58c0.78-1.05,1.95-1.6,3.26-1.6s2.49,0.55,3.26,1.6c0.79,1.09,1.17,2.64,1.17,4.83
		c0,2.19-0.38,3.74-1.17,4.83c-0.78,1.05-1.95,1.6-3.26,1.6s-2.48-0.55-3.26-1.6c-0.79-1.09-1.17-2.64-1.17-4.83
		C194.55,89.22,194.93,87.67,195.72,86.58z M197.48,95.11c0.35,0.47,0.85,0.76,1.5,0.76s1.16-0.29,1.5-0.76
		c0.57-0.78,0.74-2.16,0.74-3.69c0-1.54-0.17-2.92-0.74-3.69c-0.35-0.47-0.85-0.76-1.5-0.76s-1.16,0.29-1.5,0.76
		c-0.57,0.78-0.74,2.16-0.74,3.69C196.74,92.95,196.91,94.33,197.48,95.11z"/>
	<path class="st0" d="M212.15,92.62c1.33-1.67,1.97-2.68,1.97-3.73c0-1.26-0.88-1.93-2.16-1.93c-0.9,0-1.95,0.35-2.86,1.02v-2.11
		c0.69-0.47,1.73-0.9,3.04-0.9c2.33,0,4.19,1.38,4.19,3.75c0,1.55-0.79,2.92-2.17,4.66l-1.83,2.29l0.02,0.03h4.44v1.95h-8.58
		l-0.02-0.03L212.15,92.62z"/>
	<path class="st0" d="M225.47,92.62c1.33-1.67,1.97-2.68,1.97-3.73c0-1.26-0.88-1.93-2.16-1.93c-0.9,0-1.95,0.35-2.87,1.02v-2.11
		c0.69-0.47,1.73-0.9,3.04-0.9c2.33,0,4.19,1.38,4.19,3.75c0,1.55-0.79,2.92-2.17,4.66l-1.83,2.29l0.02,0.03h4.44v1.95h-8.58
		l-0.02-0.03L225.47,92.62z"/>
</g>
</svg>
